<?xml version="1.0" standalone="no"?>
<!DOCTYPE svg PUBLIC "-//W3C//DTD SVG 20010904//EN"
 "http://www.w3.org/TR/2001/REC-SVG-20010904/DTD/svg10.dtd">
<svg version="1.0" xmlns="http://www.w3.org/2000/svg"
 width="260.000000pt" height="260.000000pt" viewBox="0 0 260.000000 260.000000"
 preserveAspectRatio="xMidYMid meet">
<metadata>
Created by potrace 1.11, written by Peter Selinger 2001-2013
</metadata>
<g transform="translate(0.000000,260.000000) scale(0.100000,-0.100000)"
fill="#000000" stroke="none">
<path d="M1198 2423 c7 -3 16 -2 19 1 4 3 -2 6 -13 5 -11 0 -14 -3 -6 -6z"/>
<path d="M1298 2423 c7 -3 16 -2 19 1 4 3 -2 6 -13 5 -11 0 -14 -3 -6 -6z"/>
<path d="M519 2153 c-13 -16 -12 -17 4 -4 9 7 17 15 17 17 0 8 -8 3 -21 -13z"/>
<path d="M2015 2130 c10 -11 20 -20 23 -20 3 0 -3 9 -13 20 -10 11 -20 20 -23
20 -3 0 3 -9 13 -20z"/>
<path d="M2085 2060 c10 -11 20 -20 23 -20 3 0 -3 9 -13 20 -10 11 -20 20 -23
20 -3 0 3 -9 13 -20z"/>
<path d="M1118 1974 c-2 -54 -1 -110 2 -124 5 -25 7 -25 57 -17 48 8 51 10 57
41 8 42 -1 66 -25 66 -33 0 -22 30 11 32 17 0 35 1 42 2 8 1 12 -19 13 -61 0
-34 3 -64 5 -67 3 -2 27 -7 54 -10 27 -4 57 -11 67 -16 29 -16 30 -13 27 53
-3 56 -5 62 -25 65 -13 2 -23 10 -23 18 0 8 10 14 23 14 12 0 32 3 45 6 22 6
22 5 22 -102 0 -69 4 -104 9 -95 8 12 13 12 35 -3 l26 -16 0 47 c1 63 31 127
72 154 18 12 26 19 17 16 -9 -3 -22 0 -28 6 -6 6 -11 8 -11 3 0 -4 -13 2 -30
14 -16 12 -30 19 -30 16 0 -4 -17 1 -37 10 -70 29 -251 45 -333 29 -13 -3 -27
0 -31 7 -4 6 -9 -34 -11 -88z"/>
<path d="M1060 2046 c0 -8 -19 -18 -44 -25 -25 -6 -48 -16 -51 -21 -4 -6 -11
-8 -16 -5 -5 4 -9 1 -9 -4 0 -6 -9 -11 -21 -11 -18 0 -17 -3 12 -27 41 -35 59
-79 59 -145 0 -29 4 -48 8 -42 11 17 51 36 62 29 6 -4 10 43 10 129 0 75 -2
136 -5 136 -3 0 -5 -6 -5 -14z"/>
<path d="M868 1983 c7 -3 16 -2 19 1 4 3 -2 6 -13 5 -11 0 -14 -3 -6 -6z"/>
<path d="M828 1940 c-51 -30 -63 -187 -18 -235 29 -30 72 -33 100 -5 17 17 23
32 34 92 2 9 0 38 -5 65 -13 72 -64 110 -111 83z"/>
<path d="M1643 1940 c-24 -10 -53 -58 -53 -87 0 -16 9 -18 86 -15 l86 4 -6 26
c-7 29 -59 82 -79 81 -6 0 -22 -4 -34 -9z"/>
<path d="M721 1865 c-1 -22 -13 -43 -41 -70 -22 -21 -40 -43 -40 -49 0 -5 -11
-23 -24 -40 -35 -47 -94 -180 -101 -230 -2 -17 -8 -62 -14 -101 -21 -157 17
-320 112 -477 12 -21 30 -47 40 -58 9 -11 17 -24 17 -29 0 -6 9 -13 20 -16 11
-4 18 -10 15 -14 -2 -4 6 -17 19 -28 23 -21 24 -21 52 -2 43 28 109 25 140 -6
28 -28 29 -62 2 -79 -26 -16 -54 14 -39 42 13 25 6 32 -36 32 -34 0 -74 -29
-72 -52 0 -10 2 -10 6 0 7 17 20 15 41 -6 10 -10 42 -30 72 -46 30 -15 61 -35
68 -44 10 -13 12 -9 12 27 0 124 112 193 194 120 47 -41 65 -114 43 -177 -10
-27 -11 -40 -3 -34 6 4 21 7 33 6 19 -1 20 2 12 23 -23 61 3 162 50 195 16 11
9 13 -53 11 -116 -3 -253 50 -348 136 l-52 46 50 7 c27 3 146 7 265 7 192 1
218 3 223 17 4 9 0 24 -7 33 -8 9 -17 32 -21 52 -19 108 -111 221 -210 258
-38 14 -50 24 -48 36 5 24 -15 35 -65 35 -24 0 -43 5 -43 10 0 7 17 8 48 5 57
-8 99 7 111 37 12 33 -4 48 -53 49 l-41 0 49 13 c54 15 69 31 55 58 -23 43
-101 51 -107 11 -2 -13 1 -23 7 -23 6 0 8 6 5 14 -3 9 3 17 16 21 24 8 70 -18
70 -40 0 -15 -57 -35 -102 -35 -30 0 -37 -14 -12 -24 9 -3 36 -6 60 -6 36 0
44 -3 44 -19 0 -24 -17 -37 -57 -46 -21 -4 -33 -3 -33 4 0 6 8 11 19 11 10 0
24 6 30 14 15 17 -5 26 -58 26 -46 0 -77 20 -68 44 6 15 15 17 55 12 26 -4 53
-2 61 3 20 13 1 18 -62 13 -43 -3 -60 -8 -67 -23 -15 -26 20 -59 63 -59 17 0
39 -5 47 -10 27 -18 -51 -11 -120 10 -101 31 -140 24 -140 -25 0 -29 19 -45
51 -45 15 0 29 -7 33 -15 3 -9 18 -15 35 -15 50 0 44 -18 -12 -34 -64 -19
-127 -62 -165 -115 l-29 -39 -2 101 c-2 116 13 187 59 275 39 75 51 89 80 95
22 4 21 4 -6 6 -18 0 -43 12 -59 27 -28 26 -44 21 -45 -13 0 -7 -6 -13 -13
-13 -10 0 -12 23 -9 98 2 53 2 108 -1 122 -4 22 -4 22 -6 -5z m249 -425 c78
-22 62 -26 -21 -5 -58 15 -79 14 -79 -6 0 -5 17 -9 38 -9 20 0 43 -4 51 -9 15
-10 8 -41 -9 -41 -6 0 -9 4 -6 9 7 11 -17 21 -54 21 -44 0 -60 10 -60 36 0 21
5 24 38 24 20 -1 66 -9 102 -20z m120 -78 c0 -4 -5 -13 -10 -18 -8 -8 8 -18
52 -34 92 -32 169 -113 197 -205 12 -37 21 -76 21 -86 0 -10 5 -19 10 -19 6 0
10 -7 10 -15 0 -13 -45 -15 -345 -15 -294 0 -345 2 -345 14 0 8 4 17 9 20 4 3
11 25 13 50 7 61 44 133 95 184 45 44 118 83 156 81 13 0 4 -6 -21 -14 -84
-26 -164 -99 -197 -179 l-15 -36 53 0 52 0 19 53 c13 38 35 69 80 113 50 49
62 68 60 88 -3 25 -1 26 52 26 30 0 54 -4 54 -8z m-192 -109 c-21 -21 -49 -64
-63 -95 -25 -54 -29 -58 -61 -58 l-35 0 17 33 c28 55 61 93 110 126 64 42 76
39 32 -6z"/>
<path d="M996 1345 c4 -8 16 -15 29 -15 12 0 28 7 35 15 11 13 7 15 -28 15
-33 0 -40 -3 -36 -15z"/>
<path d="M1187 1243 c41 -54 78 -133 88 -187 6 -31 11 -36 36 -36 16 0 29 4
29 10 0 25 -50 144 -75 175 -23 31 -93 85 -110 85 -3 0 12 -21 32 -47z m98
-93 c31 -62 41 -110 22 -110 -8 0 -17 12 -20 28 -7 35 -39 107 -68 152 l-23
35 33 -30 c18 -16 43 -50 56 -75z"/>
<path d="M720 1045 c0 -23 3 -25 50 -25 47 0 50 2 50 25 0 23 -3 25 -50 25
-47 0 -50 -2 -50 -25z m78 -2 c-10 -2 -26 -2 -35 0 -10 3 -2 5 17 5 19 0 27
-2 18 -5z"/>
<path d="M860 990 c0 -6 44 -10 111 -10 71 0 108 4 104 10 -3 6 -52 10 -111
10 -63 0 -104 -4 -104 -10z"/>
<path d="M1810 1821 l0 -23 -110 7 c-108 7 -110 7 -110 -14 0 -30 26 -78 49
-91 39 -20 91 -12 123 20 37 37 56 29 27 -11 -26 -36 -68 -59 -111 -60 -29 0
-31 -1 -11 -9 30 -12 71 -79 101 -165 37 -104 36 -276 -3 -369 -17 -40 -18
-41 -65 -50 -35 -6 -37 -5 -58 39 -28 57 -27 60 3 93 34 36 49 86 41 138 -5
38 -98 278 -115 296 -5 5 -297 -114 -310 -127 -2 -2 21 -61 50 -130 75 -179
129 -235 229 -235 21 0 29 -9 46 -52 l21 -52 -48 -38 c-32 -25 -46 -43 -43
-53 8 -20 13 -20 108 19 l84 34 -46 -49 c-25 -27 -52 -49 -59 -49 -10 0 -13
-32 -13 -137 l0 -137 55 54 c52 51 60 70 29 70 -8 0 -14 4 -14 9 0 5 27 11 61
13 46 2 63 -1 70 -12 6 -12 8 -12 9 -1 0 7 12 28 28 45 54 64 70 88 107 164
21 42 42 86 48 97 9 18 13 35 22 116 3 20 8 46 13 58 11 30 -5 205 -25 271 -9
30 -17 61 -19 68 -1 7 -15 36 -30 65 -15 29 -32 62 -38 74 -6 13 -14 23 -18
23 -5 0 -30 35 -65 94 -12 21 -13 21 -13 -3z m-194 -336 c46 -108 63 -187 51
-237 -4 -13 -20 -38 -37 -57 l-31 -34 27 -63 c20 -47 31 -63 43 -60 44 13 116
18 106 8 -14 -16 -226 -103 -239 -99 -5 2 11 19 37 38 25 19 46 39 47 45 0 6
-11 37 -25 68 l-25 56 -46 0 c-91 0 -127 40 -207 231 l-45 107 142 60 c77 33
144 58 148 54 4 -4 28 -56 54 -117z"/>
<path d="M1419 1527 c-156 -68 -152 -77 37 -77 87 0 144 4 144 10 0 18 -49
120 -57 119 -4 -1 -60 -24 -124 -52z m144 -9 c9 -23 16 -43 14 -44 -4 -5 -255
-9 -251 -4 8 8 197 88 210 89 6 1 18 -18 27 -41z"/>
<path d="M2382 1295 c0 -16 2 -22 5 -12 2 9 2 23 0 30 -3 6 -5 -1 -5 -18z"/>
<path d="M1529 843 c24 -10 -107 -63 -158 -64 l-46 -2 44 -7 c85 -13 142 -116
112 -201 l-11 -32 25 27 c33 35 43 33 48 -11 2 -21 4 37 5 130 2 153 1 167
-15 166 -13 0 -14 -2 -4 -6z"/>
<path d="M1041 714 c-16 -21 -21 -41 -21 -89 0 -58 1 -62 23 -60 12 1 27 -2
34 -7 7 -5 17 -7 22 -4 5 4 12 2 16 -4 4 -6 11 -8 16 -5 5 4 9 1 9 -5 0 -6 4
-9 9 -5 14 8 24 89 17 130 -14 73 -84 101 -125 49z"/>
<path d="M1311 714 c-26 -33 -29 -130 -6 -174 17 -34 25 -39 19 -12 -4 14 3
17 46 19 37 2 49 -1 44 -10 -5 -8 -2 -8 7 1 21 20 19 141 -4 175 -24 37 -77
38 -106 1z"/>
<path d="M1706 691 c-24 -25 -34 -41 -27 -46 6 -3 10 -1 9 6 -2 6 16 27 40 45
24 19 37 34 30 34 -8 0 -31 -17 -52 -39z"/>
<path d="M1611 596 c-15 -16 -21 -32 -18 -48 4 -22 4 -22 6 3 1 30 34 64 52
53 8 -4 10 -3 5 4 -11 17 -20 15 -45 -12z"/>
<path d="M2197 574 c-8 -8 1 -24 14 -24 5 0 9 7 9 15 0 15 -12 20 -23 9z"/>
<path d="M2084 538 l-19 -23 23 19 c21 18 27 26 19 26 -2 0 -12 -10 -23 -22z"/>
<path d="M1260 516 c0 -2 8 -10 18 -17 15 -13 16 -12 3 4 -13 16 -21 21 -21
13z"/>
<path d="M2415 488 c-11 -6 -25 -19 -32 -27 -11 -14 -12 -13 -13 7 0 12 -4 22
-10 22 -6 0 -10 -35 -10 -85 0 -50 4 -85 10 -85 6 0 10 26 10 59 0 53 3 62 27
81 15 11 36 20 47 18 19 -3 21 -11 24 -80 4 -99 22 -102 22 -5 0 59 -4 77 -18
90 -22 20 -30 20 -57 5z"/>
<path d="M2014 468 l-19 -23 23 19 c21 18 27 26 19 26 -2 0 -12 -10 -23 -22z"/>
<path d="M2173 483 c27 -4 27 -5 27 -84 l0 -79 38 1 c36 1 36 2 7 8 l-30 6 0
78 0 77 -35 -1 c-30 -2 -31 -3 -7 -6z"/>
<path d="M1994 339 c-8 -14 11 -33 25 -25 16 10 13 36 -3 36 -8 0 -18 -5 -22
-11z"/>
<path d="M102 320 c0 -14 2 -19 5 -12 2 6 2 18 0 25 -3 6 -5 1 -5 -13z"/>
<path d="M1208 173 c7 -3 16 -2 19 1 4 3 -2 6 -13 5 -11 0 -14 -3 -6 -6z"/>
<path d="M1298 173 c7 -3 16 -2 19 1 4 3 -2 6 -13 5 -11 0 -14 -3 -6 -6z"/>
</g>
</svg>
